<?xml version="1.0" encoding="UTF-8"?>
<svg xmlns="http://www.w3.org/2000/svg" viewBox="0 0 92.3226 80.7632">
  <g id="colorB">
    <path d="m78.49,70.6612c-5.1112,1.3682-10.2838,2.4962-15.5046,3.3578-2.4688.4074-4.9462.7544-7.4326,1.035-.7211.0814-1.4441.1448-2.1663.2162-.0987-.7452-.539-1.4365-1.2064-1.8929-2.1065-1.4405-4.9197-1.4363-7.077-.1127-1.0095.6194-1.3627,1.7041-1.1489,2.8233.3091,1.6178.4402,3.4133,2.0719,4.2678,1.3821.7238,3.2569.2875,4.7402.1653,3.3387-.275,6.6663-.6631,9.983-1.1338,6.4301-.9125,12.7967-2.2255,19.0699-3.9048,3.1051-.8312,1.7877-5.6558-1.3292-4.8214Z" stroke-width="0"/>
  </g>
  <g id="colorA">
    <path d="m85.7118,43.0334c.0985-1.1388.1592-2.2885.1592-3.4528C85.871,17.7208,68.1501,0,46.2903,0S6.7097,17.7208,6.7097,39.5806c0,1.1099.0574,2.2057.147,3.2925-3.9272,1.006-6.8567,4.5748-6.8567,8.8043v14.7097c0,5.0032,4.0936,9.0967,9.0968,9.0967,4.6634,0,8.5329-3.5574,9.0375-8.0919.0367-.3304.0592-.665.0592-1.0048v-14.7097c0-4.6052-3.4709-8.4308-7.9244-9.0118-.0861-1.0178-.1401-2.0449-.1401-3.085C10.129,19.6093,26.319,3.4193,46.2903,3.4193s36.1613,16.19,36.1613,36.1613c0,1.06-.0552,2.1066-.1446,3.1435-4.576.4644-8.178,4.3568-8.178,9.05v14.7097c0,.3899.0331.7717.0814,1.149.5705,4.4648,4.4021,7.9478,9.0154,7.9478,5.0032,0,9.0968-4.0936,9.0968-9.0968v-14.7097c0-4.1411-2.8074-7.6513-6.6108-8.7407Z" stroke-width="0"/>
  </g>
</svg>