<?xml version="1.0" encoding="UTF-8"?>
<svg xmlns="http://www.w3.org/2000/svg" viewBox="0 0 100 85.2511">
  <g id="colorA">
    <path d="m75,0c-13.8071,0-25,11.1929-25,25C50,11.1929,38.8071,0,25,0S0,11.1929,0,25c0,7.5486,3.3503,14.3104,8.6395,18.8943l41.3568,41.3568,41.3085-41.3085c5.3214-4.5846,8.6952-11.3675,8.6952-18.9426,0-13.8071-11.1929-25-25-25Z" stroke-width="0"/>
  </g>
  <g id="colorB">
    <path d="m30.7919,17.4766c-3.4012,0-6.1584,2.7572-6.1584,6.1584,0-3.4012-2.7572-6.1584-6.1584-6.1584s-6.1584,2.7572-6.1584,6.1584c0,1.8595.8253,3.5252,2.1282,4.6543l10.1876,10.1876,10.1757-10.1757c1.3109-1.1293,2.1419-2.8002,2.1419-4.6662,0-3.4012-2.7572-6.1584-6.1584-6.1584Z" fill="#fff" stroke-width="0"/>
  </g>
</svg>