<?xml version="1.0" encoding="UTF-8"?>
<svg xmlns="http://www.w3.org/2000/svg" viewBox="0 0 98.3208 98.345">
  <g id="colorB">
    <path d="m16.5155,81.0044c-.8405.7716-1.6516,1.5808-2.4313,2.4302.9177.8943,1.8352,1.7886,2.7529,2.6829.1387.1497.2637.3157.4183.4468,7.3963,6.275,15.9036,10.0801,25.5151,11.3511,6.879.9097,13.6683.3738,20.3276-1.5989,2.429-.7195,4.8292-1.5309,7.0629-2.7592.1367-.0403.2827-.0619.4089-.1237,4.213-2.0632,8.0888-4.6275,11.5334-7.8207.7885-.7309,1.5125-1.5314,2.2661-2.2999.1633-.1155.3588-.2036.4849-.351,1.2142-1.4199,2.4799-2.8017,3.6104-4.2861,3.0134-3.9566,5.3841-8.2712,6.9843-12.9937.3984-1.2396.8442-2.4662,1.1856-3.7213.7256-2.667,1.2565-5.3734,1.4371-8.139.0079-.1558.0157-.3116.0235-.4671.0187-.1063.0375-.2129.0563-.3195h0c.0531-.8929.1323-1.7852.1545-2.6788.075-3.0038-.1409-5.9884-.6109-8.9569-.8348-5.2732-2.4883-10.2758-4.9786-14.9947-1.6146-3.0596-3.5109-5.9288-5.748-8.585-2.1619-2.567-4.4683-4.965-7.1514-6.9885-1.1583-.8677-2.2823-1.7861-3.4813-2.5932-3.2823-2.2095-6.7797-4.0062-10.5294-5.2932-4.1707-1.5734-8.4926-2.4574-12.9279-2.7963-5.0131-.3831-9.9807-.0342-14.8699,1.141-1.8088.4348-3.5704,1.0656-5.3536,1.6071-3.0631.9799-5.9459,2.3671-8.6653,4.059-1.8815,1.1706-3.6442,2.5322-5.46,3.8085-1.5289,1.3719-3.1296,2.6727-4.574,4.1286-5.1313,5.1724-8.84,11.2503-11.243,18.1202C.73,38.682-.1483,44.5288.0204,50.532c.0109.3862.0549.7714.0834,1.1571.088,3.1498.5454,6.2524,1.3422,9.2936.4711,1.798,1.1163,3.5505,1.6833,5.3234.0301.14.0425.2866.0929.4188,2.2609,5.9388,5.5851,11.2169,9.8942,15.8788.2867.3102.6436.5554.9678.8308" stroke-width="0"/>
  </g>
  <g id="colorA">
    <g>
      <path d="m80.2388,79.4396c-3.9218-3.3284-8.3674-5.7915-13.1921-7.5241-2.3361-.8389-4.7436-1.5417-7.1733-2.0404-2.5962-.5328-5.2475-.8834-7.8919-1.068-2.1883-.1528-4.4038.004-6.6032.1082-4.3434.2058-8.5547,1.1399-12.6549,2.5469-2.7352.9386-5.3758,2.1123-7.8976,3.5453-4.0025,2.2744-7.6227,5.0297-10.7416,8.4271.9176.8943,1.8352,1.7886,2.7529,2.6829.1387.1497.2637.3157.4183.4468,7.3963,6.275,15.9036,10.0801,25.5151,11.3511,6.879.9097,13.6683.3737,20.3276-1.5989,2.4289-.7195,4.8292-1.531,7.0629-2.7592.1368-.0403.2827-.0619.4089-.1237,4.2129-2.0632,8.0888-4.6275,11.5334-7.8208.7885-.7309,1.5125-1.5315,2.2661-2.2999-1.3735-1.2951-2.6934-2.6534-4.1308-3.8733Z" fill="#fff" stroke-width="0"/>
      <path d="m42.9036,23.7015c.4001.1717.823.2898,1.2265.4546,2.1016.8585,3.6788,2.2478,4.4439,4.4431.1435.4117.2466.8377.3967,1.2467.0418.1138.1854.1901.2824.2836.091-.1008.2039-.1897.267-.3057.068-.125.085-.2769.1317-.4145.885-2.6118,2.4788-4.5439,5.1845-5.4139.2769-.089.5506-.1936.8138-.3167.1186-.0555.2074-.1746.3097-.2648-.1102-.1049-.203-.2501-.3341-.3068-.3621-.1566-.7399-.2771-1.1121-.4101-1.6249-.581-2.9477-1.568-3.8173-3.0604-.4669-.8013-.7694-1.6982-1.1478-2.5512-.069-.1555-.1466-.3073-.3077-.6434-.174.386-.294.5865-.3578.8035-.6769,2.3037-1.9525,4.1273-4.1793,5.1666-.5801.2708-1.2075.439-1.8057.6735-.1393.0546-.248.1873-.3707.284.1243.1134.2303.2694.3764.3321Z" fill="#fff" stroke-width="0"/>
      <path d="m49.0466,41.6258c-.5485,2.729-2.1943,4.3896-4.8892,4.9489,1.145.7005,2.2334,1.2516,3.1859,1.9803,1.0088.7718,1.3778,2.0084,1.733,3.2214.7058-1.1315,1.192-2.304,2.0222-3.1316.8327-.8301,2.0083-1.3161,2.9592-1.9066-1.0031-.603-2.2218-1.0715-3.0629-1.9161-.8277-.8311-1.2724-2.0437-1.9482-3.1964Z" fill="#fff" stroke-width="0"/>
      <path d="m22.4714,63.678c.581-1.9582,1.856-3.1143,3.7198-3.741-1.9245-.5742-3.1095-1.7657-3.7183-3.6833-.5979,1.8951-1.7865,3.1325-3.7363,3.6922,1.8803.6306,3.2053,1.7282,3.7347,3.7322Z" fill="#fff" stroke-width="0"/>
      <path d="m76.0406,63.6779c.621-1.8978,1.7939-3.1385,3.7101-3.733-1.9654-.5632-3.0918-1.8428-3.7165-3.7142-.5885,1.9277-1.7876,3.158-3.7284,3.7205,1.9218.6206,3.2186,1.7462,3.7348,3.7268Z" fill="#fff" stroke-width="0"/>
      <path d="m64.3826,42.3114c.4288-1.1566,1.1467-1.9295,2.34-2.3011-1.2119-.3932-1.939-1.1896-2.3545-2.3561-.3708,1.2067-1.1433,1.9509-2.3218,2.3628,1.1629.4038,1.9583,1.0989,2.3363,2.2945Z" fill="#fff" stroke-width="0"/>
      <path d="m39.6547,62.2839c.4226-1.1687,1.1812-1.9208,2.3235-2.3901-1.269-.2757-1.7899-1.2324-2.3223-2.2354-.3983,1.1419-1.12,1.88-2.3128,2.2814,1.0086.5576,2.0787,1.0175,2.3116,2.344Z" fill="#fff" stroke-width="0"/>
      <path d="m58.8113,62.2186c.4071-1.1674,1.2142-1.8576,2.3305-2.3153-1.2282-.3238-1.8845-1.179-2.3592-2.2666-.3512,1.2077-1.1594,1.8857-2.4599,2.3024,1.2887.4387,2.1228,1.0695,2.4885,2.2795Z" fill="#fff" stroke-width="0"/>
      <path d="m34.2207,42.3306c.323-1.1893,1.0877-1.9156,2.2302-2.3222-1.1901-.3884-1.8986-1.1892-2.2713-2.3827-.8744,1.6016-.5845,1.4431-2.3191,2.3701.4779.2932,1.0149.5141,1.4007.8901.3809.3712.6089.8991.9595,1.4447Z" fill="#fff" stroke-width="0"/>
    </g>
  </g>
</svg>